<svg xmlns="http://www.w3.org/2000/svg" viewBox="0 0 512 640"><path d="M447.4 205.6h-19.3c-.9-2.6-1.9-5.1-3.1-7.5l13.6-13.6c3.9-3.9 3.9-10.3 0-14.3l-21.4-21.4c-3.9-3.9-10.3-3.9-14.2 0l-13.6 13.6c-2.4-1.2-4.9-2.1-7.5-3.1V140c0-5.6-4.5-10.1-10.1-10.1h-30.2c-5.6 0-10.1 4.5-10.1 10.1v19.3c-2.6.9-5.1 1.9-7.5 3.1l-13.6-13.6c-3.9-3.9-10.3-3.9-14.2 0l-21.4 21.4c-3.9 3.9-3.9 10.3 0 14.2l13.6 13.6c-1.2 2.4-2.1 4.9-3.1 7.5H266c-5.6 0-10.1 4.5-10.1 10.1v30.2c0 5.6 4.5 10.1 10.1 10.1h19.3c.9 2.6 1.9 5.1 3.1 7.5L274.8 277c-3.9 3.9-3.9 10.3 0 14.3l21.4 21.4c3.9 3.9 10.3 3.9 14.2 0l13.6-13.6c2.4 1.2 4.9 2.1 7.5 3.1v19.3c0 5.6 4.5 10.1 10.1 10.1h30.2c5.6 0 10.1-4.5 10.1-10.1v-19.3c2.6-.9 5.1-1.9 7.5-3.1l13.6 13.6c3.9 3.9 10.3 3.9 14.2 0l21.4-21.4c3.9-3.9 3.9-10.3 0-14.3L425 263.5c1.2-2.4 2.1-4.9 3.1-7.5h19.3c5.6 0 10.1-4.5 10.1-10.1v-30.2c0-5.6-4.5-10.1-10.1-10.1zm-90.7 50.8c-14.1 0-25.6-11.5-25.6-25.6 0-14.1 11.5-25.6 25.6-25.6 14.1 0 25.6 11.5 25.6 25.6 0 14.2-11.4 25.6-25.6 25.6z"/><path d="M346.7 381.9h-30.2c-5.6 0-10.1 4.5-10.1 10.1v15.1H104.9V54.5h201.5v15.1c0 5.6 4.5 10.1 10.1 10.1h30.2c5.6 0 10.1-4.5 10.1-10.1V29.3c0-13.9-11.3-25.2-25.2-25.2H79.7c-13.9 0-25.2 11.3-25.2 25.2v453.3c0 13.9 11.3 25.2 25.2 25.2h251.8c13.9 0 25.2-11.3 25.2-25.2V392c0-5.6-4.5-10.1-10-10.1zM230.8 482.7h-50.4c-13.9 0-25.2-11.3-25.2-25.2 0-13.9 11.3-25.2 25.2-25.2h50.4c13.9 0 25.2 11.3 25.2 25.2 0 13.9-11.3 25.2-25.2 25.2z"/></svg>