<svg xmlns="http://www.w3.org/2000/svg" xmlns:xlink="http://www.w3.org/1999/xlink" version="1.1" x="0px" y="0px" viewBox="0 0 100 125" enable-background="new 0 0 100 100" xml:space="preserve"><path d="M79.64,30.88V20.26L67.36,32.55L46.03,53.87L31.22,39.06L19.53,50.75l-4.42-4.42c0.06,1.68,0.28,3.31,0.65,4.89  c2.58,10.931,12.41,19.09,24.12,19.09c13.66,0,24.771-11.119,24.771-24.78c0-1.87-0.21-3.68-0.601-5.43l5.431-5.43  c1.25,3.39,1.93,7.04,1.93,10.86c0,6.121-1.75,11.831-4.771,16.661l16.9,16.84c2.83,2.81,2.83,7.399,0,10.21l-0.7,0.7  c-2.81,2.829-7.399,2.829-10.21,0L55.51,72.91c-4.609,2.649-9.95,4.16-15.63,4.16c-17.39,0-31.54-14.15-31.54-31.541  c0-0.57,0.02-1.13,0.04-1.69c0.04-0.78,0.11-1.55,0.22-2.32c0.1-0.85,0.25-1.69,0.42-2.52c3.02-14.27,15.71-25,30.86-25  c8.78,0,16.74,3.61,22.46,9.42l-4.78,4.78c-4.5-4.59-10.76-7.44-17.68-7.44c-9.78,0-18.25,5.68-22.27,13.92  c-0.48,0.97-0.89,1.97-1.23,3.01l3.15,3.16l11.69-11.69l14.81,14.81l13.65-13.65l4.78-4.78l10.23-10.23H64.53v-7H86.64v22.57H79.64z  "/></svg>
