<svg xmlns="http://www.w3.org/2000/svg" viewBox="0 0 72 90"><circle cx="36" cy="29.4" r="5.6"/><path d="M52 23l-2.3.4c-.4.1-.8-.1-1-.5-.5-1-1.2-2-1.9-2.8-.3-.3-.3-.8-.1-1.1l1.3-1.9c.3-.4.2-1-.2-1.2L44 13.3c-.4-.3-1-.2-1.2.2l-1.3 1.9c-.2.3-.7.5-1 .3-1.1-.4-2.2-.6-3.4-.7-.4 0-.7-.3-.8-.7l-.4-2.3c-.1-.5-.6-.8-1.1-.7l-4.5.9c-.5.1-.8.6-.7 1.1l.4 2.3c.1.4-.1.8-.5 1-1 .5-2 1.2-2.8 1.9-.3.3-.8.3-1.1.1l-1.9-1.3c-.4-.3-1-.2-1.2.2L20 21.3c-.3.4-.2 1 .2 1.2l1.9 1.3c.3.2.5.7.3 1-.4 1.1-.6 2.2-.7 3.4 0 .4-.3.7-.7.8l-2.3.4c-.5.1-.8.6-.7 1.1l.9 4.5c.1.5.6.8 1.1.7l2.3-.4c.4-.1.8.1 1 .5.5 1 1.2 2 1.9 2.8.3.3.3.8.1 1.1L24 41.6c-.3.4-.2 1 .2 1.2l3.8 2.5c.4.3 1 .2 1.2-.2l1.3-1.9c.2-.3.7-.5 1-.3 1.1.4 2.2.6 3.4.7.4 0 .7.3.8.7l.4 2.3c.1.5.6.8 1.1.7l4.5-.9c.5-.1.8-.6.7-1.1l-.4-2.2c-.1-.4.1-.8.5-1 1-.5 2-1.2 2.8-1.9.3-.3.8-.3 1.1-.1l1.9 1.3c.4.3 1 .2 1.2-.2l2.5-3.8c.3-.4.2-1-.2-1.2l-1.9-1.3c-.3-.2-.5-.7-.3-1 .4-1.1.6-2.2.7-3.4 0-.4.3-.7.7-.8l2.3-.4c.5-.1.8-.6.7-1.1l-.9-4.5c-.1-.5-.6-.8-1.1-.7zM37.9 38.9c-5.2 1-10.3-2.4-11.4-7.6-1-5.2 2.4-10.3 7.6-11.4 5.2-1 10.3 2.4 11.4 7.6 1 5.3-2.4 10.4-7.6 11.4z"/><path d="M69.6.5H2.4C1.4.5.5 1.4.5 2.4v53.9c0 1 .9 1.9 1.9 1.9h23c1.2 0 2.1 1.1 1.9 2.2l-.3 1.8c-.2.9-.9 1.6-1.9 1.6h-2c-1 0-1.9.9-1.9 1.9v3.9c0 1 .9 1.9 1.9 1.9H49c1 0 1.9-.9 1.9-1.9v-3.9c0-1-.9-1.9-1.9-1.9h-2c-.9 0-1.7-.7-1.9-1.6l-.3-1.8c-.2-1.2.7-2.2 1.9-2.2h23c1 0 1.9-.9 1.9-1.9V2.4c-.1-1-1-1.9-2-1.9zM64 48.4c0 .9-.8 1.7-1.7 1.7h-53c-.9 0-1.7-.8-1.7-1.7V9c0-.9.8-1.7 1.7-1.7h53c.9 0 1.7.8 1.7 1.7v39.4z"/></svg>