<svg xmlns="http://www.w3.org/2000/svg" xmlns:xlink="http://www.w3.org/1999/xlink" version="1.1" x="0px" y="0px" viewBox="0 0 72 90" enable-background="new 0 0 72 72" xml:space="preserve"><g><g><circle fill="#000000" cx="36" cy="29.4" r="5.6"/><path fill="#000000" d="M52,23l-2.3,0.4c-0.4,0.1-0.8-0.1-1-0.5c-0.5-1-1.2-2-1.9-2.8c-0.3-0.3-0.3-0.8-0.1-1.1l1.3-1.9    c0.3-0.4,0.2-1-0.2-1.2L44,13.3c-0.4-0.3-1-0.2-1.2,0.2l-1.3,1.9c-0.2,0.3-0.7,0.5-1,0.3c-1.1-0.4-2.2-0.6-3.4-0.7    c-0.4,0-0.7-0.3-0.8-0.7l-0.4-2.3c-0.1-0.5-0.6-0.8-1.1-0.7l-4.5,0.9c-0.5,0.1-0.8,0.6-0.7,1.1l0.4,2.3c0.1,0.4-0.1,0.8-0.5,1    c-1,0.5-2,1.2-2.8,1.9c-0.3,0.3-0.8,0.3-1.1,0.1l-1.9-1.3c-0.4-0.3-1-0.2-1.2,0.2l-2.5,3.8c-0.3,0.4-0.2,1,0.2,1.2l1.9,1.3    c0.3,0.2,0.5,0.7,0.3,1c-0.4,1.1-0.6,2.2-0.7,3.4c0,0.4-0.3,0.7-0.7,0.8l-2.3,0.4c-0.5,0.1-0.8,0.6-0.7,1.1l0.9,4.5    c0.1,0.5,0.6,0.8,1.1,0.7l2.3-0.4c0.4-0.1,0.8,0.1,1,0.5c0.5,1,1.2,2,1.9,2.8c0.3,0.3,0.3,0.8,0.1,1.1l-1.3,1.9    c-0.3,0.4-0.2,1,0.2,1.2l3.8,2.5c0.4,0.3,1,0.2,1.2-0.2l1.3-1.9c0.2-0.3,0.7-0.5,1-0.3c1.1,0.4,2.2,0.6,3.4,0.7    c0.4,0,0.7,0.3,0.8,0.7l0.4,2.3c0.1,0.5,0.6,0.8,1.1,0.7l4.5-0.9c0.5-0.1,0.8-0.6,0.7-1.1L42,43.1c-0.1-0.4,0.1-0.8,0.5-1    c1-0.5,2-1.2,2.8-1.9c0.3-0.3,0.8-0.3,1.1-0.1l1.9,1.3c0.4,0.3,1,0.2,1.2-0.2l2.5-3.8c0.3-0.4,0.2-1-0.2-1.2l-1.9-1.3    c-0.3-0.2-0.5-0.7-0.3-1c0.4-1.1,0.6-2.2,0.7-3.4c0-0.4,0.3-0.7,0.7-0.8l2.3-0.4c0.5-0.1,0.8-0.6,0.7-1.1l-0.9-4.5    C53,23.2,52.5,22.9,52,23z M37.9,38.9c-5.2,1-10.3-2.4-11.4-7.6c-1-5.2,2.4-10.3,7.6-11.4c5.2-1,10.3,2.4,11.4,7.6    C46.5,32.8,43.1,37.9,37.9,38.9z"/></g><path fill="#000000" d="M69.6,0.5H2.4c-1,0-1.9,0.9-1.9,1.9v53.9c0,1,0.9,1.9,1.9,1.9h23c1.2,0,2.1,1.1,1.9,2.2l-0.3,1.8   c-0.2,0.9-0.9,1.6-1.9,1.6h-2c-1,0-1.9,0.9-1.9,1.9v3.9c0,1,0.9,1.9,1.9,1.9h25.9c1,0,1.9-0.9,1.9-1.9v-3.9c0-1-0.9-1.9-1.9-1.9h-2   c-0.9,0-1.7-0.7-1.9-1.6l-0.3-1.8c-0.2-1.2,0.7-2.2,1.9-2.2h23c1,0,1.9-0.9,1.9-1.9V2.4C71.5,1.4,70.6,0.5,69.6,0.5z M64,48.4   c0,0.9-0.8,1.7-1.7,1.7h-53c-0.9,0-1.7-0.8-1.7-1.7V9c0-0.9,0.8-1.7,1.7-1.7h53C63.2,7.3,64,8.1,64,9V48.4z"/></g></svg>
