<svg xmlns="http://www.w3.org/2000/svg" viewBox="0 0 90 77.86875"><path d="M22.542 45.666H9.684v12.399h12.858V45.666zm57.759 2.981v-3H27.244v3h53.057zm.015 4.735v-3H27.259v3h53.057zM61.57 58.058v-3H27.248v3H61.57zm26.746 4.237H1.681c-.846-.313-1.427-.882-1.682-1.763V7.046c.146-.004.293-.012.44-.012h89.559v.434c0 17.583 0 35.167.003 52.752.003.634-.239 1.152-.718 1.534-.287.226-.64.362-.967.541zM22.542 28.474H9.684v12.4h12.858v-12.4zm57.759 2.982v-3H27.244v3h53.057zm.015 4.734v-3H27.259v3h53.057zM61.57 40.866v-3H27.248v3H61.57zM22.542 11.51H9.684v12.399h12.858V11.51zm57.759 2.982v-3H27.244v3h53.057zm.015 4.734v-3H27.259v3h53.057zM61.57 23.902v-3H27.248v3H61.57zM1.761 0h86.555c.056.032.107.071.164.093 1.025.386 1.519 1.095 1.519 2.189v3.39H.6c-.201 0-.401.008-.6.012V1.761C.286.873.872.285 1.761 0zm4.73 3.936a1.114 1.114 0 0 0 1.114-1.117 1.113 1.113 0 0 0-1.096-1.096c-.611-.008-1.134.494-1.141 1.099-.006.599.513 1.113 1.123 1.114zM4.175 2.817a1.1 1.1 0 0 0-1.131-1.093 1.1 1.1 0 0 0-1.081 1.103 1.091 1.091 0 0 0 1.109 1.11 1.098 1.098 0 0 0 1.103-1.12zm6.803.029a1.11 1.11 0 0 0-1.112-1.123c-.601 0-1.092.489-1.097 1.093a1.093 1.093 0 0 0 1.067 1.12 1.111 1.111 0 0 0 1.142-1.09z"/></svg>