<svg xmlns="http://www.w3.org/2000/svg" xmlns:xlink="http://www.w3.org/1999/xlink" version="1.1" x="0px" y="0px" viewBox="0 0 90 77.86875" enable-background="new 0 0 90 62.295" xml:space="preserve"><g><g><path d="M22.542,45.666c-4.305,0-8.582,0-12.858,0c0,4.146,0,8.271,0,12.399c4.295,0,8.573,0,12.858,0    C22.542,53.927,22.542,49.808,22.542,45.666z M80.301,48.647c0-1.004,0-2.002,0-3c-17.744,0-35.391,0-53.057,0c0,1.002,0,2,0,3    C44.957,48.647,62.582,48.647,80.301,48.647z M80.316,53.382c0-1.005,0-2.003,0-3c-17.744,0-35.392,0-53.057,0c0,1.002,0,2,0,3    C44.972,53.382,62.598,53.382,80.316,53.382z M61.57,58.058c0-1.004,0-2.002,0-3c-11.479,0-22.894,0-34.322,0c0,1.002,0,2,0,3    C38.708,58.058,50.107,58.058,61.57,58.058z M88.316,62.295c-28.879,0-57.756,0-86.635,0c-0.846-0.313-1.427-0.882-1.682-1.763    c0-17.828,0-35.657,0-53.486c0.146-0.004,0.293-0.012,0.44-0.012c29.697,0,59.396,0,89.094,0c0.145,0,0.283,0,0.465,0    c0,0.172,0,0.303,0,0.434c0,17.583,0,35.167,0.003,52.752c0.003,0.634-0.239,1.152-0.718,1.534    C88.996,61.98,88.643,62.116,88.316,62.295z M22.542,28.474c-4.305,0-8.582,0-12.858,0c0,4.146,0,8.271,0,12.4    c4.295,0,8.573,0,12.858,0C22.542,36.735,22.542,32.616,22.542,28.474z M80.301,31.456c0-1.004,0-2.002,0-3    c-17.744,0-35.391,0-53.057,0c0,1.002,0,2,0,3C44.957,31.456,62.582,31.456,80.301,31.456z M80.316,36.19c0-1.006,0-2.004,0-3    c-17.744,0-35.392,0-53.057,0c0,1.002,0,2,0,3C44.972,36.19,62.598,36.19,80.316,36.19z M61.57,40.866c0-1.004,0-2.002,0-3    c-11.479,0-22.894,0-34.322,0c0,1.002,0,2,0,3C38.708,40.866,50.107,40.866,61.57,40.866z M22.542,11.51    c-4.305,0-8.582,0-12.858,0c0,4.146,0,8.271,0,12.399c4.295,0,8.573,0,12.858,0C22.542,19.771,22.542,15.651,22.542,11.51z     M80.301,14.492c0-1.004,0-2.002,0-3c-17.744,0-35.391,0-53.057,0c0,1.002,0,2,0,3C44.957,14.492,62.582,14.492,80.301,14.492z     M80.316,19.226c0-1.004,0-2.002,0-3c-17.744,0-35.392,0-53.057,0c0,1.002,0,2,0,3C44.972,19.226,62.598,19.226,80.316,19.226z     M61.57,23.902c0-1.004,0-2.002,0-3c-11.479,0-22.894,0-34.322,0c0,1.002,0,2,0,3C38.708,23.902,50.107,23.902,61.57,23.902z"/><path d="M1.761,0c28.852,0,57.705,0,86.555,0c0.056,0.032,0.107,0.071,0.164,0.093c1.025,0.386,1.519,1.095,1.519,2.189    c0,0.454,0,0.907,0,1.361c0,0.663,0,1.326,0,2.029c-0.228,0-0.411,0-0.594,0c-29.603,0-59.203,0-88.805,0    c-0.201,0-0.401,0.008-0.6,0.012c0-1.308,0-2.616,0-3.923C0.286,0.873,0.872,0.285,1.761,0z M6.491,3.936    c0.614,0.001,1.121-0.505,1.114-1.117C7.599,2.221,7.109,1.731,6.509,1.723C5.898,1.715,5.375,2.217,5.368,2.822    C5.362,3.421,5.881,3.935,6.491,3.936z M4.175,2.817C4.168,2.197,3.67,1.715,3.044,1.724C2.445,1.732,1.965,2.222,1.963,2.827    C1.96,3.452,2.448,3.94,3.072,3.937C3.698,3.932,4.182,3.439,4.175,2.817z M10.978,2.846c0.007-0.62-0.491-1.122-1.112-1.123    c-0.601,0-1.092,0.489-1.097,1.093C8.764,3.431,9.23,3.92,9.836,3.936C10.455,3.952,10.97,3.46,10.978,2.846z"/></g></g></svg>
