<svg xmlns="http://www.w3.org/2000/svg" viewBox="0 0 48 60"><path d="M4 0v48h40V0H4zm8 1a1 1 0 1 1 0 2 1 1 0 1 1 0-2zM9 1a1 1 0 1 1 0 2 1 1 0 1 1 0-2zM6 1a1 1 0 1 1 0 2 1 1 0 1 1 0-2zm37 46H5V4h38v43z"/><path d="M10 42h5v2h-5zm7-8H8v7h9v-7zm-7 1a1 1 0 1 1 0 2 1 1 0 0 1 0-2zm6 5H9v-.5l2-1.5 1.467 1.027L14.5 37.5 16 39v1zm5 2h5v2h-5zm-2-1h9v-7h-9v7zm2-6a1 1 0 1 1 0 2 1 1 0 0 1 0-2zm-1 4.5l2-1.5 1.467 1.027L25.5 37.5 27 39v1h-7v-.5zM32 42h5v2h-5zm-2-1h9v-7h-9v7zm2-6a1 1 0 1 1 0 2 1 1 0 0 1 0-2zm-1 4.5l2-1.5 1.467 1.027L36.5 37.5 38 39v1h-7v-.5zM10 29h5v2h-5zm7-8H8v7h9v-7zm-7 1a1 1 0 1 1 0 2 1 1 0 0 1 0-2zm6 5H9v-.5l2-1.5 1.467 1.027L14.5 24.5 16 26v1zm5 2h5v2h-5zm-2-1h9v-7h-9v7zm2-6a1 1 0 1 1 0 2 1 1 0 0 1 0-2zm-1 4.5l2-1.5 1.467 1.027L25.5 24.5 27 26v1h-7v-.5zM32 29h5v2h-5zm-2-1h9v-7h-9v7zm2-6a1 1 0 1 1 0 2 1 1 0 0 1 0-2zm-1 4.5l2-1.5 1.467 1.027L36.5 24.5 38 26v1h-7v-.5zM19 8H8v9h11V8zm-8.5 1a1.5 1.5 0 1 1 0 3 1.5 1.5 0 0 1 0-3zm7.5 7H9v-1.5l2-1.5 1.333.934L16 11l2 2v3zm3-8h13v2H21zm0 6h15v1H21zm0-2h18v1H21zm0 4h18v1H21z"/></svg>