<svg xmlns="http://www.w3.org/2000/svg" xmlns:xlink="http://www.w3.org/1999/xlink" version="1.1" x="0px" y="0px" viewBox="0 0 48 60" enable-background="new 0 0 48 48" xml:space="preserve"><g><path d="M4,0v48h40V0H4z M12,1c0.553,0,1,0.447,1,1s-0.447,1-1,1s-1-0.447-1-1S11.447,1,12,1z M9,1c0.553,0,1,0.447,1,1   S9.553,3,9,3S8,2.553,8,2S8.447,1,9,1z M6,1c0.553,0,1,0.447,1,1S6.553,3,6,3S5,2.553,5,2S5.447,1,6,1z M43,47H5V4h38V47z"/><rect x="10" y="42" width="5" height="2"/><path d="M17,34H8v7h9V34z M10,35c0.552,0,1,0.447,1,1s-0.448,1-1,1s-1-0.447-1-1S9.448,35,10,35z M16,40H9v-0.5l2-1.5l1.467,1.027   L14.5,37.5L16,39V40z"/><rect x="21" y="42" width="5" height="2"/><path d="M19,41h9v-7h-9V41z M21,35c0.552,0,1,0.447,1,1s-0.448,1-1,1s-1-0.447-1-1S20.448,35,21,35z M20,39.5l2-1.5l1.467,1.027   L25.5,37.5L27,39v1h-7V39.5z"/><rect x="32" y="42" width="5" height="2"/><path d="M30,41h9v-7h-9V41z M32,35c0.552,0,1,0.447,1,1s-0.448,1-1,1s-1-0.447-1-1S31.448,35,32,35z M31,39.5l2-1.5l1.467,1.027   L36.5,37.5L38,39v1h-7V39.5z"/><rect x="10" y="29" width="5" height="2"/><path d="M17,21H8v7h9V21z M10,22c0.552,0,1,0.448,1,1s-0.448,1-1,1s-1-0.448-1-1S9.448,22,10,22z M16,27H9v-0.5l2-1.5l1.467,1.027   L14.5,24.5L16,26V27z"/><rect x="21" y="29" width="5" height="2"/><path d="M19,28h9v-7h-9V28z M21,22c0.552,0,1,0.448,1,1s-0.448,1-1,1s-1-0.448-1-1S20.448,22,21,22z M20,26.5l2-1.5l1.467,1.027   L25.5,24.5L27,26v1h-7V26.5z"/><rect x="32" y="29" width="5" height="2"/><path d="M30,28h9v-7h-9V28z M32,22c0.552,0,1,0.448,1,1s-0.448,1-1,1s-1-0.448-1-1S31.448,22,32,22z M31,26.5l2-1.5l1.467,1.027   L36.5,24.5L38,26v1h-7V26.5z"/><path d="M19,8H8v9h11V8z M10.5,9c0.828,0,1.5,0.671,1.5,1.5S11.328,12,10.5,12S9,11.329,9,10.5S9.672,9,10.5,9z M18,16H9v-1.5   l2-1.5l1.333,0.934L16,11l2,2V16z"/><rect x="21" y="8" width="13" height="2"/><rect x="21" y="14" width="15" height="1"/><rect x="21" y="12" width="18" height="1"/><rect x="21" y="16" width="18" height="1"/></g></svg>
