<svg xmlns="http://www.w3.org/2000/svg" xmlns:xlink="http://www.w3.org/1999/xlink" version="1.1" x="0px" y="0px" viewBox="0 0 100 125" enable-background="new 0 0 100 100" xml:space="preserve"><g><path d="M32.5,51l-14.9,4.2v1.1l14.9,4.2v8.5L7,59.5v-7.4l25.5-9.6V51z"/><path d="M35.7,43.6c0.1-1.6,0.5-2.7,1.1-4.2c0.5-1.6,1.4-3,2.5-4.1c1.2-1.3,2.5-2.2,4.4-3c1.8-0.7,4.5-1.3,6.9-1.3   c4.7,0,7.4,0.7,9.4,2.7c1.3,1.2,3.4,4.8,3.4,8c0,1.6-0.5,3.3-1.1,4.2c-1.8,3.2-6.8,5.6-7.9,6.7c-1.1,1-0.7,2.3-0.7,2.9h-9.6   c0-0.5,0-1.4,0-2.1c0-4.8,3-6.4,5.3-7.4c0.5-0.2,3.2-1.1,3.2-3.2s-1.2-3.2-3.2-3.2c-3.1,0-3.2,3.2-3.2,4.2L35.7,43.6L35.7,43.6z    M44.2,59.5h10.6v9.6H44.2V59.5z"/><path d="M67.5,42.5L93,52.1v7.4l-25.5,9.6v-8.5l14.9-4.2v-1.1L67.5,51V42.5z"/></g></svg>
