<svg xmlns="http://www.w3.org/2000/svg" viewBox="0 0 100 125"><path d="M32.5 51l-14.9 4.2v1.1l14.9 4.2V69L7 59.5v-7.4l25.5-9.6V51zm3.2-7.4c.1-1.6.5-2.7 1.1-4.2.5-1.6 1.4-3 2.5-4.1 1.2-1.3 2.5-2.2 4.4-3 1.8-.7 4.5-1.3 6.9-1.3 4.7 0 7.4.7 9.4 2.7 1.3 1.2 3.4 4.8 3.4 8 0 1.6-.5 3.3-1.1 4.2-1.8 3.2-6.8 5.6-7.9 6.7-1.1 1-.7 2.3-.7 2.9h-9.6v-2.1c0-4.8 3-6.4 5.3-7.4.5-.2 3.2-1.1 3.2-3.2s-1.2-3.2-3.2-3.2c-3.1 0-3.2 3.2-3.2 4.2l-10.5-.2zm8.5 15.9h10.6v9.6H44.2v-9.6zm23.3-17L93 52.1v7.4l-25.5 9.6v-8.5l14.9-4.2v-1.1L67.5 51v-8.5z"/></svg>