<svg xmlns="http://www.w3.org/2000/svg" viewBox="0 0 32 40.00000125"><path style="text-indent:0;text-decoration-line:none;text-transform:none;block-progression:tb" d="M17 2v13.969h1.25a.5.5 0 0 1 .031 0l.563.031a.5.5 0 0 1 .343.125l2.25 2.219V16.5a.5.5 0 0 1 .5-.5l3.125-.031H30V2H17zm1 2h1.719a.5.5 0 0 1 .437.375l.157.625H27.5a.5.5 0 0 1 .469.656l-1.282 4a.5.5 0 0 1-.5.344H21.5l.25 1h3.781a.5.5 0 0 1 .094.031 1.489 1.489 0 0 1 1.281 1.469c0 .822-.678 1.5-1.5 1.5s-1.5-.678-1.5-1.5c0-.171.04-.346.094-.5h-1.125c.054.154.094.329.094.5 0 .822-.678 1.5-1.5 1.5s-1.5-.678-1.5-1.5c0-.575.331-1.061.812-1.313L19.281 5H18V4zm2.563 2l.718 3h4.563l.312-1h-2.781V7H26.5l.313-1h-6.25zM2 10v13h24v-6.031h-.938L22.438 17v2.531a.5.5 0 0 1-.843.344L18.625 17l-.375-.031H16.5a.5.5 0 0 1-.5-.5V10H2zm1.844 1.5a.5.5 0 0 1 .156 0h5a.5.5 0 0 1 .5.5v5a.5.5 0 0 1-.5.5H4a.5.5 0 0 1-.5-.5v-5a.5.5 0 0 1 .344-.5zM10 12h4v1h-4v-1zm11.344 0a.497.497 0 0 0-.375.5c0 .282.218.5.5.5.281 0 .5-.218.5-.5 0-.282-.219-.5-.5-.5h-.125zm4.062 0c-.281 0-.5.218-.5.5 0 .282.219.5.5.5.282 0 .5-.218.5-.5 0-.282-.218-.5-.5-.5zM4.5 12.5v4h4v-4h-4zM10 14h4v1h-4v-1zm0 2h4v1h-4v-1zm-6 2h4v1H4v-1zm8 .5h1c.822 0 1.5.678 1.5 1.5 0-.822.678-1.5 1.5-1.5h1c.822 0 1.5.678 1.5 1.5s-.678 1.5-1.5 1.5h-1c-.822 0-1.5-.678-1.5-1.5 0 .822-.678 1.5-1.5 1.5h-1c-.822 0-1.5-.678-1.5-1.5s.678-1.5 1.5-1.5zm0 1c-.286 0-.5.214-.5.5 0 .286.214.5.5.5h1c.286 0 .5-.214.5-.5 0-.286-.214-.5-.5-.5h-1zm4 0c-.286 0-.5.214-.5.5 0 .286.214.5.5.5h1c.286 0 .5-.214.5-.5 0-.286-.214-.5-.5-.5h-1zM2 24v2h24v-2H2zm9 3v2H8v1h11.988v-1H17v-2h-6z" overflow="visible" color="#000"/></svg>