<svg xmlns="http://www.w3.org/2000/svg" xmlns:xlink="http://www.w3.org/1999/xlink" version="1.1" x="0px" y="0px" viewBox="0 0 512 640" enable-background="new 0 0 512 512" xml:space="preserve"><g><path d="M223.5,138.8c19.5,0,35.4,15.9,35.4,35.4c0,7.8,6.3,14.2,14.2,14.2s14.2-6.3,14.2-14.2c0-30.2-21.2-55.6-49.5-62V94.6   c0-7.8-6.3-14.2-14.2-14.2c-7.8,0-14.2,6.3-14.2,14.2v17.6c-28.3,6.5-49.5,31.8-49.5,62c0,35.1,28.6,63.7,63.7,63.7   c0.8,0,1.6-0.1,2.4-0.2c18.4,1.2,33,16.6,33,35.3c0,19.5-15.9,35.4-35.4,35.4c-19.5,0-35.3-15.9-35.3-35.4   c0-7.8-6.3-14.2-14.2-14.2c-7.8,0-14.2,6.3-14.2,14.2c0,30.2,21.2,55.6,49.5,62v17.5c0,7.8,6.3,14.2,14.2,14.2   c7.8,0,14.2-6.3,14.2-14.2V335c28.3-6.5,49.5-31.8,49.5-62c0-35.1-28.6-63.7-63.7-63.7c-0.8,0-1.6,0.1-2.4,0.2   c-18.4-1.2-33-16.6-33-35.3C188.2,154.7,204,138.8,223.5,138.8z"/><path d="M501.2,376.2l-89.3-36.3c21.6-34.9,33.1-74.7,33.1-116.3C445,101.4,345.7,2,223.5,2C101.4,2,2,101.4,2,223.5   C2,345.7,101.4,445,223.5,445c41.6,0,81.5-11.4,116.4-33l36.3,89.1c4.1,9.7,13.5,8.8,13.8,8.8c6-0.3,11.2-4.3,12.9-10l18.1-59.1   l35.2,35.2c5.5,5.5,14.5,5.5,20,0c5.5-5.5,5.5-14.5,0-20l-35.2-35.2l59.1-18.1c5.7-1.8,9.7-6.9,10-12.9   C510.2,383.9,506.7,378.4,501.2,376.2z M303,321.4l26,63.8c-31.4,20.5-67.6,31.4-105.5,31.4c-90,0-165.8-61.8-187.1-145.2h15.7   c7.8,0,14.2-6.3,14.2-14.2c0-7.8-6.3-14.2-14.2-14.2H31.3c-0.7-6.5-1-13-1-19.7c0-5.5,0.3-10.9,0.7-16.2h57.6   c7.8,0,14.2-6.3,14.2-14.2c0-7.8-6.3-14.2-14.2-14.2H35.6C55.7,93.9,132.3,30.3,223.5,30.3c106.5,0,193.2,86.7,193.2,193.2   c0,37.9-11,74-31.6,105.4L321.4,303c-5.3-2.1-11.3-0.9-15.4,3.1C302.1,310.1,300.8,316.2,303,321.4z M410.1,400.7   c-4.5,1.4-8,4.9-9.4,9.4l-13.3,43.5l-45.5-111.7l111.7,45.5L410.1,400.7z"/></g></svg>
