<svg xmlns="http://www.w3.org/2000/svg" viewBox="0 0 512 640"><path d="M223.5 138.8c19.5 0 35.4 15.9 35.4 35.4 0 7.8 6.3 14.2 14.2 14.2s14.2-6.3 14.2-14.2c0-30.2-21.2-55.6-49.5-62V94.6c0-7.8-6.3-14.2-14.2-14.2-7.8 0-14.2 6.3-14.2 14.2v17.6c-28.3 6.5-49.5 31.8-49.5 62 0 35.1 28.6 63.7 63.7 63.7.8 0 1.6-.1 2.4-.2 18.4 1.2 33 16.6 33 35.3 0 19.5-15.9 35.4-35.4 35.4s-35.3-15.9-35.3-35.4c0-7.8-6.3-14.2-14.2-14.2-7.8 0-14.2 6.3-14.2 14.2 0 30.2 21.2 55.6 49.5 62v17.5c0 7.8 6.3 14.2 14.2 14.2 7.8 0 14.2-6.3 14.2-14.2V335c28.3-6.5 49.5-31.8 49.5-62 0-35.1-28.6-63.7-63.7-63.7-.8 0-1.6.1-2.4.2-18.4-1.2-33-16.6-33-35.3 0-19.5 15.8-35.4 35.3-35.4z"/><path d="M501.2 376.2l-89.3-36.3C433.5 305 445 265.2 445 223.6 445 101.4 345.7 2 223.5 2 101.4 2 2 101.4 2 223.5 2 345.7 101.4 445 223.5 445c41.6 0 81.5-11.4 116.4-33l36.3 89.1c4.1 9.7 13.5 8.8 13.8 8.8 6-.3 11.2-4.3 12.9-10l18.1-59.1 35.2 35.2c5.5 5.5 14.5 5.5 20 0s5.5-14.5 0-20L441 420.8l59.1-18.1c5.7-1.8 9.7-6.9 10-12.9.1-5.9-3.4-11.4-8.9-13.6zM303 321.4l26 63.8c-31.4 20.5-67.6 31.4-105.5 31.4-90 0-165.8-61.8-187.1-145.2h15.7c7.8 0 14.2-6.3 14.2-14.2 0-7.8-6.3-14.2-14.2-14.2H31.3c-.7-6.5-1-13-1-19.7 0-5.5.3-10.9.7-16.2h57.6c7.8 0 14.2-6.3 14.2-14.2 0-7.8-6.3-14.2-14.2-14.2h-53C55.7 93.9 132.3 30.3 223.5 30.3c106.5 0 193.2 86.7 193.2 193.2 0 37.9-11 74-31.6 105.4L321.4 303c-5.3-2.1-11.3-.9-15.4 3.1-3.9 4-5.2 10.1-3 15.3zm107.1 79.3c-4.5 1.4-8 4.9-9.4 9.4l-13.3 43.5-45.5-111.7 111.7 45.5-43.5 13.3z"/></svg>